<svg width="710" height="687" viewBox="0 0 710 687" fill="none" xmlns="http://www.w3.org/2000/svg">
<g clip-path="url(#clip0_4_70)">
<path d="M206.94 230.81L177.58 259.39C174.65 262.25 172.99 266.16 172.99 270.26V392.57C172.99 404.38 178.12 415.61 187.06 423.34L468.73 667.07C484 680.28 506.64 680.3 521.93 667.12L685.87 525.76C694.84 518.03 699.99 506.78 699.99 494.94V196.11C699.99 184.45 694.99 173.35 686.25 165.62L518.7 17.49C506.08 6.33 486.73 7.81 475.96 20.77L457.55 42.9C447.44 55.06 448.55 72.99 460.1 83.8L603.12 217.73C611.34 225.42 616 236.18 616 247.43V442.27C616 454 610.93 465.17 602.1 472.89L522.07 542.92C506.73 556.35 483.81 556.34 468.47 542.92L275.89 374.34C267.06 366.61 262 355.45 262 343.72V270.25C262 266.16 260.35 262.24 257.42 259.39L228.11 230.82C222.22 225.08 212.83 225.08 206.94 230.82V230.81Z M503.06 454.71L532.42 426.13C535.35 423.27 537.01 419.36 537.01 415.26V292.95C537.01 281.14 531.88 269.91 522.94 262.18L241.26 18.46C225.99 5.24999 203.35 5.22999 188.06 18.41L24.12 159.77C15.15 167.5 10 178.75 10 190.59V489.42C10 501.08 15 512.18 23.74 519.91L191.3 668.04C203.92 679.2 223.27 677.72 234.04 664.76L252.45 642.63C262.56 630.47 261.45 612.54 249.9 601.73L106.88 467.8C98.66 460.11 94 449.35 94 438.1V243.25C94 231.52 99.07 220.35 107.9 212.63L187.93 142.6C203.27 129.17 226.19 129.18 241.53 142.6L434.11 311.18C442.94 318.91 448 330.07 448 341.8V415.27C448 419.36 449.65 423.28 452.58 426.13L481.89 454.7C487.78 460.44 497.17 460.44 503.06 454.7V454.71Z"/>
</g>
<defs>
</defs>
</svg>
